<svg width="224" height="69" viewBox="0 0 224 69" fill="none" xmlns="http://www.w3.org/2000/svg">
<path fill-rule="evenodd" clip-rule="evenodd" d="M141.906 28.6798H140.418V21.044H136.73V28.6798H135.242V19.6201H141.906V28.6798Z" fill="black"/>
<path fill-rule="evenodd" clip-rule="evenodd" d="M154.533 22.5962C154.533 24.2664 153.238 25.5739 151.529 25.5739H149.679V28.6798H148.191V19.6201H151.529C153.238 19.6201 154.533 20.9149 154.533 22.597V22.5962ZM153.045 22.5962C153.045 21.6776 152.411 21.0179 151.53 21.0179H149.68V24.1754H151.53C152.412 24.1754 153.045 23.503 153.045 22.5962Z" fill="black"/>
<path fill-rule="evenodd" clip-rule="evenodd" d="M159.557 24.1512C159.557 21.5235 161.64 19.4526 164.254 19.4526C166.867 19.4526 168.953 21.5235 168.953 24.1512C168.953 26.7788 166.882 28.8497 164.254 28.8497C161.625 28.8497 159.557 26.7788 159.557 24.1512ZM167.464 24.1512C167.464 22.2877 166.066 20.9026 164.254 20.9026C162.442 20.9026 161.045 22.2877 161.045 24.1512C161.045 26.0146 162.443 27.3997 164.254 27.3997C166.064 27.3997 167.464 26.0146 167.464 24.1512Z" fill="black"/>
<path fill-rule="evenodd" clip-rule="evenodd" d="M179.605 27.7755V28.8106H178.143V27.7755C175.632 27.5681 173.924 26.2867 173.924 24.1516C173.924 22.0166 175.631 20.7345 178.143 20.5278V19.4927H179.605V20.5278C182.102 20.7352 183.812 22.0292 183.812 24.1516C183.812 26.274 182.103 27.5681 179.605 27.7755ZM178.143 26.4166V21.8867C176.422 22.0419 175.413 22.7666 175.413 24.1516C175.413 25.5367 176.422 26.2613 178.143 26.4173V26.4166ZM182.324 24.1509C182.324 22.7658 181.313 22.0412 179.606 21.886V26.4158C181.313 26.2464 182.324 25.5225 182.324 24.1501V24.1509Z" fill="black"/>
<path fill-rule="evenodd" clip-rule="evenodd" d="M224 28.7064H222.511V22.2482L219.754 26.8034H219.573L216.816 22.2348V28.7064H215.328V19.6475H216.933L219.664 24.1766L222.406 19.6475H224V28.7064Z" fill="black"/>
<path fill-rule="evenodd" clip-rule="evenodd" d="M194.155 28.681L190.584 24.3713V28.681H189.096V19.6221H190.584V23.6855L194.026 19.6221H195.799L192.136 24.0355L195.929 28.681H194.155Z" fill="black"/>
<path fill-rule="evenodd" clip-rule="evenodd" d="M200.506 24.1512C200.506 21.5235 202.589 19.4526 205.203 19.4526C207.817 19.4526 209.901 21.5235 209.901 24.1512C209.901 26.7788 207.831 28.8497 205.203 28.8497C202.575 28.8497 200.506 26.7788 200.506 24.1512ZM208.413 24.1512C208.413 22.2877 207.015 20.9026 205.203 20.9026C203.391 20.9026 201.994 22.2877 201.994 24.1512C201.994 26.0146 203.392 27.3997 205.203 27.3997C207.014 27.3997 208.413 26.0146 208.413 24.1512Z" fill="black"/>
<path fill-rule="evenodd" clip-rule="evenodd" d="M134.922 49.2838H133.46V41.7816H129.836V49.2838H128.373V40.3838H134.922V49.2838Z" fill="black"/>
<path fill-rule="evenodd" clip-rule="evenodd" d="M140.423 45.138C140.256 42.3073 142.544 40.0499 145.364 40.2424C147.635 40.3969 149.524 42.3208 149.64 44.5939C149.782 47.3872 147.549 49.6118 144.751 49.4551C142.471 49.3268 140.557 47.4163 140.423 45.138ZM148.184 44.8469C148.184 43.0156 146.81 41.6559 145.03 41.6559C143.25 41.6559 141.877 43.0163 141.877 44.8469C141.877 46.6775 143.251 48.0395 145.03 48.0395C146.809 48.0395 148.184 46.6783 148.184 44.8469Z" fill="black"/>
<path fill-rule="evenodd" clip-rule="evenodd" d="M154.395 47.9458C155.437 48.0861 156.06 47.6018 156.06 45.5428V40.3921H162.024V49.2929H160.562V41.7899H157.522V45.516C157.522 48.7593 156.048 49.4585 154.395 49.2929V47.9458Z" fill="black"/>
<path fill-rule="evenodd" clip-rule="evenodd" d="M173.978 43.2726L169.781 49.3129H168.637V40.4121H170.099V46.4509L174.296 40.4121H175.44V49.3129H173.978V43.2726Z" fill="black"/>
<path fill-rule="evenodd" clip-rule="evenodd" d="M187.375 41.793H184.87V49.2953H183.409V41.793H180.891V40.3945H187.375V41.793Z" fill="black"/>
<path fill-rule="evenodd" clip-rule="evenodd" d="M198.479 47.9058V49.3051H193.074V40.4043H198.415V41.8028H194.537V44.1162H198.097V45.5028H194.537V47.9058H198.479Z" fill="black"/>
<path fill-rule="evenodd" clip-rule="evenodd" d="M209.6 49.2953L207.641 46.0781L205.683 49.2953H204.018L206.814 44.7177L204.183 40.3945H205.835L207.641 43.3565L209.446 40.3945H211.113L208.48 44.7177L211.265 49.2953H209.6Z" fill="black"/>
<path fill-rule="evenodd" clip-rule="evenodd" d="M221.798 47.5203H218.01L217.386 49.3136H215.797L219.027 40.4121H220.781L223.998 49.3136H222.421L221.798 47.5203H221.798ZM221.316 46.1464L219.904 42.1285L218.492 46.1464H221.316Z" fill="black"/>
<path fill-rule="evenodd" clip-rule="evenodd" d="M98.3661 9.68213H120.925L98.3415 59.2352H75.7832L98.3661 9.68213Z" fill="black"/>
<path fill-rule="evenodd" clip-rule="evenodd" d="M77.5165 0H100.075L77.4926 49.5531H54.9336L77.5165 0Z" fill="black"/>
<path fill-rule="evenodd" clip-rule="evenodd" d="M43.4305 19.3638H65.9888L43.4059 68.9161H20.8477L43.4305 19.3638Z" fill="black"/>
<path fill-rule="evenodd" clip-rule="evenodd" d="M22.5829 9.68213H45.1411L22.5583 59.2352H0L22.5829 9.68213Z" fill="black"/>
</svg>
