<svg width="32" height="20" viewBox="0 0 32 20" fill="none" xmlns="http://www.w3.org/2000/svg">
<path d="M31.9499 1.41604C32.222 2.1513 31.3863 3.86689 29.4429 6.56282C29.1708 6.93045 28.821 7.42062 28.3934 8.03333C27.4994 9.17706 26.9942 9.93274 26.8775 10.3004C26.6832 10.7905 26.7609 11.2603 27.1108 11.7096C27.3051 11.9547 27.7521 12.4449 28.4517 13.1801H28.51V13.2414C30.1036 14.7527 31.1725 16.0394 31.7167 17.1015L31.8333 17.3465L31.9499 17.8061V18.3882L31.5418 18.8477L30.5506 19.0621L26.2945 19.1847C26.0224 19.2255 25.7018 19.1847 25.3325 19.0621C24.9633 18.9396 24.6815 18.8171 24.4871 18.6945L24.1373 18.4494C23.7875 18.2043 23.3988 17.8367 22.9713 17.3465C22.5437 16.8564 22.1647 16.4071 21.8344 15.9986C21.504 15.5901 21.1639 15.2531 20.8141 14.9876C20.4642 14.7221 20.1533 14.6302 19.8812 14.7119C19.8424 14.7119 19.7938 14.7323 19.7355 14.7732C19.6772 14.814 19.58 14.9059 19.444 15.0489C19.3079 15.1918 19.1913 15.3654 19.0941 15.5697C18.997 15.7739 18.9095 16.0701 18.8318 16.4581C18.754 16.8462 18.7152 17.3057 18.7152 17.8367C18.7152 18.0001 18.6957 18.1533 18.6569 18.2963C18.618 18.4392 18.5791 18.5515 18.5403 18.6332L18.482 18.6945C18.2487 18.9396 17.9378 19.0621 17.5491 19.0621H15.6834C14.8672 19.1438 14.0412 19.0621 13.2056 18.8171C12.3699 18.572 11.6411 18.2554 11.0192 17.8674C10.3973 17.4793 9.83372 17.0913 9.32843 16.7032C8.82314 16.3151 8.43446 15.9782 8.16238 15.6922L7.75426 15.2633C7.63765 15.1816 7.48218 15.0182 7.28784 14.7732C7.0935 14.5281 6.69509 13.9971 6.09263 13.1801C5.49017 12.3632 4.89743 11.4849 4.3144 10.5454C3.73137 9.60596 3.05117 8.37032 2.27381 6.83854C1.49644 5.30676 0.777369 3.72393 0.116605 2.09003C0.0388685 1.88579 0 1.7224 0 1.59986C0 1.47732 0.0194342 1.3752 0.0583027 1.2935L0.116605 1.23223C0.272079 0.987146 0.583027 0.864604 1.04945 0.864604H5.65536C5.77197 0.864604 5.88857 0.89524 6.00518 0.956511L6.29669 1.10969L6.35499 1.17096C6.54934 1.2935 6.68538 1.47732 6.76311 1.7224C6.99632 2.29426 7.25869 2.89676 7.5502 3.5299C7.84171 4.16304 8.06521 4.64299 8.22068 4.96977L8.45389 5.45994C8.80371 6.15435 9.12437 6.75685 9.41589 7.26744C9.7074 7.77803 9.96976 8.1763 10.203 8.46223C10.4362 8.74816 10.6694 8.97282 10.9026 9.13621C11.1358 9.2996 11.3302 9.3813 11.4856 9.3813C11.6411 9.3813 11.7966 9.36087 11.9521 9.32003L12.0104 9.22812L12.2144 8.82986L12.4476 8.03333L12.5934 6.62409V4.41833C12.5545 3.96901 12.4962 3.55032 12.4185 3.16227C12.3407 2.77422 12.263 2.4985 12.1853 2.33511L12.127 2.1513C11.8549 1.74282 11.369 1.47732 10.6694 1.35477C10.5528 1.35477 10.5917 1.21181 10.786 0.925875C10.9803 0.721638 11.1941 0.558248 11.4273 0.435706C12.0104 0.108927 13.3319 -0.0340395 15.3919 0.00680791C16.2859 0.00680791 17.0438 0.0885028 17.6657 0.251893C17.8601 0.29274 18.035 0.364223 18.1904 0.466342C18.3459 0.56846 18.4625 0.711426 18.5403 0.89524C18.618 1.07905 18.6763 1.26287 18.7152 1.44668C18.754 1.63049 18.7735 1.896 18.7735 2.24321V3.19291C18.7346 3.51969 18.7152 3.92816 18.7152 4.41833V5.88884C18.7152 6.01138 18.7055 6.25647 18.686 6.62409C18.6666 6.99172 18.6569 7.27765 18.6569 7.48189C18.6569 7.68613 18.6763 7.921 18.7152 8.18651C18.754 8.45202 18.8221 8.67668 18.9192 8.86049C19.0164 9.0443 19.1427 9.17706 19.2982 9.25875C19.3759 9.2996 19.4634 9.33024 19.5606 9.35066C19.6577 9.37108 19.8035 9.30981 19.9978 9.16685C20.1922 9.02388 20.4059 8.81964 20.6392 8.55414C20.8724 8.28863 21.1639 7.89036 21.5137 7.35935C21.8635 6.82833 22.2328 6.21562 22.6214 5.52121C23.2822 4.29579 23.8847 2.96825 24.4288 1.53859C24.4677 1.45689 24.5163 1.36499 24.5746 1.26287C24.6329 1.16075 24.7009 1.08927 24.7786 1.04842H24.837L24.8953 0.987146L25.1285 0.925875H25.4783L30.2591 0.864604C30.6867 0.823757 31.0462 0.84418 31.3377 0.925875C31.6292 1.00757 31.7944 1.10969 31.8333 1.23223L31.9499 1.41604Z" fill="#B1B5C3"/>
</svg>
