<svg width="442" height="197" viewBox="0 0 442 197" fill="none" xmlns="http://www.w3.org/2000/svg">
<path fill-rule="evenodd" clip-rule="evenodd" d="M44.4653 38.9277H80.2911L45.1277 117.538H8.60156L44.4653 38.9277Z" fill="black"/>
<path fill-rule="evenodd" clip-rule="evenodd" d="M8.60393 117.538L21.3063 89.6551L114.21 89.6551L97.5383 117.539L8.60393 117.538Z" fill="black"/>
<path fill-rule="evenodd" clip-rule="evenodd" d="M111.165 38.9277H146.991L93.6567 157.325H57.832L111.165 38.9277Z" fill="black"/>
<path fill-rule="evenodd" clip-rule="evenodd" d="M178.526 69.0473L192.028 38.9295L293.665 38.9287L280.167 69.0472L178.526 69.0473Z" fill="black"/>
<path fill-rule="evenodd" clip-rule="evenodd" d="M138.823 157.206L152.318 127.087L253.962 127.087L240.463 157.205L138.823 157.206Z" fill="black"/>
<path fill-rule="evenodd" clip-rule="evenodd" d="M257.735 38.9292H293.561L240.227 157.327H204.402L257.735 38.9292Z" fill="black"/>
<path fill-rule="evenodd" clip-rule="evenodd" d="M192.157 38.9287H227.983L174.649 157.326H138.824L192.157 38.9287Z" fill="black"/>
<path fill-rule="evenodd" clip-rule="evenodd" d="M338.731 38.9277H374.557L339.393 117.538H302.867L338.731 38.9277Z" fill="#030000"/>
<path fill-rule="evenodd" clip-rule="evenodd" d="M302.87 117.538L315.572 89.6546L408.475 89.6546L391.804 117.538L302.87 117.538Z" fill="#030000"/>
<path fill-rule="evenodd" clip-rule="evenodd" d="M405.43 38.9277H441.256L387.922 157.325H352.098L405.43 38.9277Z" fill="#030000"/>
</svg>
