<svg width="80" height="90" viewBox="0 0 80 90" fill="none" xmlns="http://www.w3.org/2000/svg" xmlns:xlink="http://www.w3.org/1999/xlink">
    <g fill="none">
        <path fill="#E2574C"
              d="M5.714 0h48.552L80 25.234v59.141C80 87.483 77.44 90 74.286 90H5.714C2.56 90 0 87.483 0 84.375V5.625C0 2.517 2.56 0 5.714 0z"/>
        <path fill="#B53629" d="M80 25.161H60.29c-3.123 0-5.656-2.51-5.656-5.604V0L80 25.161z"/>
        <path fill="#FFF"
              d="M59.06 41.871c.959 0 1.428-.802 1.428-1.579 0-.805-.49-1.582-1.427-1.582h-5.457c-1.067 0-1.661.848-1.661 1.785v12.88c0 1.149.68 1.786 1.601 1.786.915 0 1.599-.637 1.599-1.785V49.84h3.3c1.024 0 1.536-.804 1.536-1.604 0-.783-.512-1.56-1.536-1.56h-3.3V41.87h3.918zM40.619 38.71h-3.992c-1.084 0-1.854.714-1.854 1.774v12.903c0 1.316 1.107 1.728 1.9 1.728h4.189c4.959 0 8.233-3.135 8.233-7.972-.003-5.115-3.085-8.433-8.476-8.433zm.192 13.224h-2.434V41.89h2.193c3.32 0 4.765 2.14 4.765 5.093 0 2.763-1.419 4.95-4.524 4.95zM26.185 38.71h-3.956c-1.118 0-1.741.708-1.741 1.785v12.88c0 1.149.715 1.786 1.676 1.786.96 0 1.675-.637 1.675-1.785v-3.76h2.48c3.06 0 5.585-2.083 5.585-5.432 0-3.277-2.436-5.474-5.72-5.474zm-.066 7.884h-2.28v-4.86h2.28c1.407 0 2.302 1.055 2.302 2.431-.003 1.374-.895 2.429-2.302 2.429z"/>
    </g>
</svg>